<svg id="Capa_1" data-name="Capa 1" xmlns="http://www.w3.org/2000/svg" viewBox="0 0 160 160"><defs><style>.cls-1{fill:#fbb03b;}.cls-2{fill:#f15a24;}.cls-3{font-size:107.22px;font-family:OriyaMN-Bold, Oriya MN;font-weight:700;}.cls-3,.cls-4{fill:#fff;stroke:#c1272d;stroke-miterlimit:10;stroke-width:0.5px;}</style></defs><title>logotipo</title><path class="cls-1" d="M100,171.5A78.5,78.5,0,1,1,178.5,93,78.59,78.59,0,0,1,100,171.5Z" transform="translate(-20 -13)"/><path class="cls-2" d="M100,16A77,77,0,1,1,23,93a77.09,77.09,0,0,1,77-77m0-3a80,80,0,1,0,80,80,80,80,0,0,0-80-80Z" transform="translate(-20 -13)"/><text class="cls-3" transform="translate(12 116.74) scale(0.89 1)">BZ</text><rect class="cls-4" x="42.5" y="125.5" width="74" height="6"/><rect class="cls-4" x="42.5" y="33.5" width="74" height="6"/></svg>
